<?xml version="1.0" encoding="UTF-8"?>
<svg version="1.1" xmlns="http://www.w3.org/2000/svg" width="16" height="16">
<path d="M0 0 C2.72869407 0.03287583 5.2966618 0.56397771 8 1 C8.18451025 10.41002278 8.18451025 10.41002278 7 15 C2.62835032 15.77146759 -0.68903724 16.00514676 -5 15 C-5.16834933 13.22932584 -5.33461909 11.45845388 -5.5 9.6875 C-5.5928125 8.70136719 -5.685625 7.71523437 -5.78125 6.69921875 C-6 4 -6 4 -6 1 C-5.38125 1.20625 -4.7625 1.4125 -4.125 1.625 C-3.073125 1.810625 -3.073125 1.810625 -2 2 C-1.34 1.34 -0.68 0.68 0 0 Z " fill="#5E6671" transform="translate(7,0)"/>
<path d="M0 0 C1.98 0 3.96 0 6 0 C6.6875 2.25 6.6875 2.25 7 5 C5.5625 7.3125 5.5625 7.3125 4 9 C3.01 8.67 2.02 8.34 1 8 C1 7.01 1 6.02 1 5 C0.34 5 -0.32 5 -1 5 C-0.67 3.35 -0.34 1.7 0 0 Z " fill="#63615F" transform="translate(5,7)"/>
<path d="M0 0 C0.99 0 1.98 0 3 0 C3.18451025 9.41002278 3.18451025 9.41002278 2 14 C1.01 14 0.02 14 -1 14 C-1.19491452 12.54263913 -1.38069358 11.08405407 -1.5625 9.625 C-1.66691406 8.81289062 -1.77132813 8.00078125 -1.87890625 7.1640625 C-2 5 -2 5 -1 3 C-1.66 2.67 -2.32 2.34 -3 2 C-2.01 2 -1.02 2 0 2 C0 1.34 0 0.68 0 0 Z " fill="#7C7C7B" transform="translate(12,1)"/>
<path d="M0 0 C1.423125 0.2784375 1.423125 0.2784375 2.875 0.5625 C5.89868793 1.28686632 5.89868793 1.28686632 8 0 C7.34 1.65 6.68 3.3 6 5 C4.68 5 3.36 5 2 5 C2 4.01 2 3.02 2 2 C1.34 2 0.68 2 0 2 C0 1.34 0 0.68 0 0 Z " fill="#40393C" transform="translate(4,10)"/>
<path d="M0 0 C1.65 0.33 3.3 0.66 5 1 C4.67 2.65 4.34 4.3 4 6 C3.01 6 2.02 6 1 6 C1 5.01 1 4.02 1 3 C0.34 3 -0.32 3 -1 3 C-0.67 2.01 -0.34 1.02 0 0 Z " fill="#6AA6C3" transform="translate(7,0)"/>
<path d="M0 0 C0.66 0.33 1.32 0.66 2 1 C1.67 1.99 1.34 2.98 1 4 C1.66 4 2.32 4 3 4 C2.67 4.99 2.34 5.98 2 7 C1.01 6.67 0.02 6.34 -1 6 C-1.042721 4.33388095 -1.04063832 2.66617115 -1 1 C-0.67 0.67 -0.34 0.34 0 0 Z " fill="#7D8A8F" transform="translate(3,8)"/>
<path d="M0 0 C2.475 0.495 2.475 0.495 5 1 C5 2.32 5 3.64 5 5 C3.68 4.67 2.36 4.34 1 4 C0.67 2.68 0.34 1.36 0 0 Z " fill="#908B7A" transform="translate(1,1)"/>
</svg>
